HIERARCHY
ROOT SpineBase
{
  OFFSET 0.000000 0.000000 0.000000
  CHANNELS 6 Xposition Yposition Zposition Zrotation Xrotation Yrotation
  JOINT SpineMid
  {
    OFFSET 0.000000 28.957953 0.000000
    CHANNELS 3 Zrotation Xrotation Yrotation
    JOINT SpineShoulder
    {
      OFFSET -0.013472 21.467646 -0.716816
      CHANNELS 3 Zrotation Xrotation Yrotation
      JOINT Neck
      {
        OFFSET 0.007249 7.097798 -0.554128
        CHANNELS 3 Zrotation Xrotation Yrotation
        JOINT Head
        {
          OFFSET -4.065670 12.835259 -0.881516
          CHANNELS 3 Zrotation Xrotation Yrotation
          End Site
          {
            OFFSET 0 0 0
          }
        }
      }
      JOINT ShoulderLeft
      {
        OFFSET -13.820828 -4.498908 6.484173
        CHANNELS 3 Zrotation Xrotation Yrotation
        JOINT ElbowLeft
        {
          OFFSET -0.692520 -28.998666 1.024910
          CHANNELS 3 Zrotation Xrotation Yrotation
          JOINT WristLeft
          {
            OFFSET 1.023086 -20.239587 -7.335805
            CHANNELS 3 Zrotation Xrotation Yrotation
            JOINT HandLeft
            {
              OFFSET 0.160417 -0.630562 -0.261300
              CHANNELS 3 Zrotation Xrotation Yrotation
              JOINT HandTipLeft
              {
                OFFSET 0.686197 -6.364193 -0.766259
                CHANNELS 3 Zrotation Xrotation Yrotation
                End Site
                {
                  OFFSET 0 0 0
                }
              }
              JOINT ThumbLeft
              {
                OFFSET -2.873848 -1.174716 -1.221941
                CHANNELS 3 Zrotation Xrotation Yrotation
                End Site
                {
                  OFFSET 0 0 0
                }
              }
            }
          }
        }
      }
      JOINT ShoulderRight
      {
        OFFSET 11.867580 -3.293186 -10.645575
        CHANNELS 3 Zrotation Xrotation Yrotation
        JOINT ElbowRight
        {
          OFFSET 5.112817 -20.922451 -3.444784
          CHANNELS 3 Zrotation Xrotation Yrotation
          JOINT WristRight
          {
            OFFSET -3.955028 -20.672412 -4.477197
            CHANNELS 3 Zrotation Xrotation Yrotation
            JOINT HandRight
            {
              OFFSET -1.573875 -7.761805 0.308811
              CHANNELS 3 Zrotation Xrotation Yrotation
              JOINT HandTipRight
              {
                OFFSET -0.237211 -6.820851 -0.435193
                CHANNELS 3 Zrotation Xrotation Yrotation
                End Site
                {
                  OFFSET 0 0 0
                }
              }
              JOINT ThumbRight
              {
                OFFSET 3.252830 -0.571553 -0.916091
                CHANNELS 3 Zrotation Xrotation Yrotation
                End Site
                {
                  OFFSET 0 0 0
                }
              }
            }
          }
        }
      }
    }
  }
  JOINT HipLeft
  {
    OFFSET -5.923237 0.278191 0.210621
    CHANNELS 3 Zrotation Xrotation Yrotation
    JOINT KneeLeft
    {
      OFFSET 7.672961 -33.434454 5.621641
      CHANNELS 3 Zrotation Xrotation Yrotation
      JOINT AnkleLeft
      {
        OFFSET 6.991692 -33.709081 3.658437
        CHANNELS 3 Zrotation Xrotation Yrotation
        JOINT FootLeft
        {
          OFFSET -5.597231 -6.176382 -3.061353
          CHANNELS 3 Zrotation Xrotation Yrotation
          End Site
          {
            OFFSET 0 0 0
          }
        }
      }
    }
  }
  JOINT HipRight
  {
    OFFSET 6.094594 1.059394 -7.048600
    CHANNELS 3 Zrotation Xrotation Yrotation
    JOINT KneeRight
    {
      OFFSET 11.671306 -30.530436 -4.901723
      CHANNELS 3 Zrotation Xrotation Yrotation
      JOINT AnkleRight
      {
        OFFSET 8.908127 -31.507810 -3.136060
        CHANNELS 3 Zrotation Xrotation Yrotation
        JOINT FootRight
        {
          OFFSET -1.915801 -6.394842 -7.854736
          CHANNELS 3 Zrotation Xrotation Yrotation
          End Site
          {
            OFFSET 0 0 0
          }
        }
      }
    }
  }
}
MOTION
Frames: 16
Frame Time: 0.033333
-20.656484 74.876324 364.032402 -0.000000 0.000000 31.133552 0.000000 -0.000000 -31.133552 -0.000000 0.000000 0.000000 -0.000000 0.000000 0.000000 0.000000 0.000000 0.000000 -0.000000 0.000000 0.000000 -0.000000 0.000000 0.000000 -0.000000 0.000000 0.000000 -0.000000 0.000000 0.000000 0.000000 0.000000 0.000000 0.000000 0.000000 0.000000 -0.000000 0.000000 0.000000 -0.000000 0.000000 0.000000 -0.000000 0.000000 0.000000 -0.000000 0.000000 0.000000 0.000000 0.000000 0.000000 0.000000 0.000000 0.000000 0.000000 -0.000000 -31.133552 -0.000000 0.000000 0.000000 -0.000000 0.000000 0.000000 0.000000 0.000000 0.000000 0.000000 -0.000000 -31.133552 -0.000000 0.000000 0.000000 -0.000000 0.000000 0.000000 0.000000 0.000000 0.000000
-20.811064 74.658961 364.172891 0.056923 -0.103527 31.743254 0.006059 0.117989 -31.743209 -0.000000 0.000000 0.000000 1.165741 0.032282 0.089675 0.000000 0.000000 0.000000 -0.000000 0.000000 0.000000 -0.000000 0.000000 0.000000 -4.434947 -0.765610 1.634825 6.311313 -0.168698 -2.003653 0.000000 0.000000 0.000000 0.000000 0.000000 0.000000 0.388039 0.761285 0.119342 -0.713534 -2.138853 0.201313 1.421924 -0.415623 0.059559 -2.844313 -2.238250 -0.145132 0.000000 0.000000 0.000000 0.000000 0.000000 0.000000 0.006059 0.117989 -31.743209 -0.000000 0.000000 0.000000 -2.729724 -2.228424 3.279772 0.000000 0.000000 0.000000 0.006059 0.117989 -31.743209 -0.000000 0.000000 0.000000 -0.000000 0.000000 0.000000 0.000000 0.000000 0.000000
-20.962259 74.469509 364.303916 0.105993 -0.200045 31.982776 0.016052 0.225820 -31.982623 -0.000000 0.000000 0.000000 1.812441 -0.073280 0.101919 0.000000 0.000000 0.000000 -0.000000 0.000000 0.000000 -0.000000 0.000000 0.000000 -5.655877 -1.568050 1.903801 9.175862 -0.259282 -2.669278 0.000000 0.000000 0.000000 0.000000 0.000000 0.000000 0.616095 1.060535 0.151600 -1.215570 -3.151032 0.345062 2.532172 -1.126326 0.170451 -5.110987 -3.444150 -0.246358 0.000000 0.000000 0.000000 0.000000 0.000000 0.000000 0.066372 1.527664 -31.832174 1.203688 -2.352733 -0.319190 -5.020306 -3.025840 6.071277 0.000000 0.000000 0.000000 -0.024289 -0.904777 -32.448059 -0.689907 2.150683 0.816189 -0.212002 -2.293379 0.367295 0.000000 0.000000 0.000000
-21.110069 74.307969 364.425478 0.147440 -0.289933 31.855199 0.027786 0.324080 -31.854905 -0.000000 0.000000 0.000000 1.956372 -0.316329 0.039356 0.000000 0.000000 0.000000 0.655122 -0.488447 0.037611 -0.654825 0.488845 -0.032025 -4.895392 -2.292733 1.374757 9.754981 -0.207149 -2.474486 0.000000 0.000000 0.000000 0.000000 0.000000 0.000000 0.689007 0.907379 0.102557 -1.524284 -3.149327 0.467723 3.241206 -1.865132 0.291063 -6.695273 -3.838353 -0.280606 0.000000 0.000000 0.000000 0.000000 0.000000 0.000000 -0.039312 2.317481 -31.658452 2.010036 -3.286648 -0.376829 -6.284092 -4.381926 8.075790 0.000000 0.000000 0.000000 0.029263 -0.898381 -32.354992 -0.712706 2.507866 0.929113 -0.315526 -2.962298 0.439023 0.000000 0.000000 0.000000
-21.254494 74.174341 364.537577 0.181438 -0.373526 31.362914 0.039475 0.413380 -31.362465 -0.000000 0.000000 0.000000 1.603673 -0.697104 -0.100426 0.000000 0.000000 0.000000 0.671049 -0.493142 0.038382 -0.670744 0.493557 -0.032605 -2.997451 -2.952122 0.421252 8.830858 -0.060597 -1.737505 0.000000 0.000000 0.000000 0.000000 0.000000 0.000000 -0.000000 0.000000 0.000000 -1.048215 -1.880423 0.570642 3.451653 -2.416515 0.369932 -7.500925 -3.624634 -0.243102 0.000000 0.000000 0.000000 0.000000 0.000000 0.000000 -0.268496 3.104544 -31.140638 2.958991 -4.054161 -0.363735 -6.902652 -5.618372 9.553716 0.000000 0.000000 0.000000 0.129222 -0.588913 -31.767364 -0.516046 2.385234 0.842899 -0.415214 -3.304216 0.439476 0.000000 0.000000 0.000000
-21.395533 74.068625 364.640212 0.208113 -0.451112 30.507798 0.049706 0.494309 -30.507193 -0.000000 0.000000 0.000000 0.750390 -1.216207 -0.324845 0.000000 0.000000 0.000000 -0.000000 0.000000 0.000000 -0.000000 0.000000 0.000000 -0.508603 -3.573442 -0.724671 6.905406 0.117896 -0.663530 0.000000 0.000000 0.000000 0.000000 0.000000 0.000000 0.375202 -0.725667 -0.236790 -1.630239 -0.289173 0.711167 3.073154 -2.621809 0.355697 -7.441208 -2.946774 -0.126763 0.000000 0.000000 0.000000 0.000000 0.000000 0.000000 -0.639082 3.865335 -30.280154 4.050122 -4.645701 -0.279042 -6.953141 -6.751741 10.586754 0.000000 0.000000 0.000000 0.049706 0.494309 -30.507193 0.321003 1.485294 0.383047 -0.508940 -3.318245 0.368812 0.000000 0.000000 0.000000
-21.531156 74.027412 364.752308 0.252959 -0.479566 29.554782 0.016500 0.541939 -29.553801 -0.000000 0.000000 0.000000 -0.168507 -1.734498 -0.563254 0.000000 0.000000 0.000000 -0.000000 0.000000 0.000000 -0.000000 0.000000 0.000000 -0.892961 -6.175220 -1.281786 9.037263 2.783177 -0.821752 0.000000 0.000000 0.000000 0.000000 0.000000 0.000000 0.223792 -2.099661 -0.547283 -1.914620 2.269121 0.943538 2.160833 -2.745971 0.227915 -5.798669 -0.958455 0.009568 0.000000 0.000000 0.000000 0.000000 0.000000 0.000000 -1.074840 4.464786 -29.328939 4.846514 -4.925128 -0.179090 -6.230217 -8.427311 11.721891 0.000000 0.000000 0.000000 0.016500 0.541939 -29.553801 0.593885 1.307991 0.303141 -0.769236 -2.734959 0.312321 0.000000 0.000000 0.000000
-21.690638 74.071341 364.868535 0.351754 -0.394023 28.444034 -0.121626 0.513995 -28.442279 -0.000000 0.000000 0.000000 -1.512281 -2.007911 -0.768735 0.000000 0.000000 0.000000 -0.000000 0.000000 0.000000 -0.000000 0.000000 0.000000 5.700376 -1.434313 -2.637449 0.145934 -1.752838 1.760643 0.000000 0.000000 0.000000 0.000000 0.000000 0.000000 -0.728520 -4.064988 -0.906368 -1.090259 6.814170 0.864339 1.712206 -2.761417 0.200451 -6.655335 1.205355 0.452057 0.000000 0.000000 0.000000 0.000000 0.000000 0.000000 -1.777074 5.237804 -28.206504 6.112034 -5.323746 -0.002734 -3.499870 -8.645216 10.655726 0.000000 0.000000 0.000000 0.276419 1.880169 -27.871142 1.253301 -0.821009 -0.488472 -0.840923 -3.020481 0.525105 0.000000 0.000000 0.000000
-21.880334 74.128716 364.989932 0.365296 -0.464130 26.523334 -0.119597 0.578405 -26.521251 -0.000000 0.000000 0.000000 -4.471737 -3.123558 -1.433886 0.000000 0.000000 0.000000 -0.000000 0.000000 0.000000 -0.000000 0.000000 0.000000 8.635819 -1.357020 -3.772849 -5.089179 -3.790023 3.112886 0.000000 0.000000 0.000000 0.000000 0.000000 0.000000 -1.487567 -6.262687 -1.385192 -0.461046 11.618006 0.851703 -1.868238 -2.112636 -0.294021 -1.532429 2.458469 0.988801 0.000000 0.000000 0.000000 0.000000 0.000000 0.000000 -2.513375 5.737607 -26.319079 7.865833 -5.423504 0.316150 -0.051964 -9.224477 9.404248 0.000000 0.000000 0.000000 0.243795 3.561604 -25.290782 2.319331 -2.957104 -1.308174 -0.719059 -2.088774 0.018669 0.000000 0.000000 0.000000
-21.987402 73.957047 365.017517 0.209527 -0.693831 23.296342 0.081955 0.720128 -23.295588 -0.000000 0.000000 0.000000 -8.051367 -4.395618 -2.301341 0.000000 0.000000 0.000000 -1.757665 -0.318120 -0.059382 3.647409 0.500068 -0.639071 5.823485 0.853426 -2.270828 -3.719389 -7.318485 2.001653 0.000000 0.000000 0.000000 0.000000 0.000000 0.000000 -2.481967 -9.046222 -2.040052 -0.050550 17.948886 0.922569 -5.155363 -0.438136 -1.155164 1.336781 2.367110 2.203049 0.000000 0.000000 0.000000 0.000000 0.000000 0.000000 -3.591191 6.170909 -23.185960 10.073418 -5.505118 0.717541 2.524136 -8.640077 7.315761 0.000000 0.000000 0.000000 0.316667 6.111033 -21.073697 3.391417 -6.350870 -2.492718 -0.649462 1.056747 -0.779588 0.000000 0.000000 0.000000
-22.216133 73.888942 365.149484 -0.015896 -0.940712 19.195785 -0.235007 -0.216995 -19.201488 -0.112013 -0.142667 -0.013159 -13.476566 -5.804414 -3.873281 0.000000 0.000000 0.000000 -2.081171 2.365824 -0.013398 6.449504 -0.826214 -1.278661 9.719946 -6.939559 -5.088967 -11.763328 1.919510 7.267892 0.000000 0.000000 0.000000 0.000000 0.000000 0.000000 -2.853943 -9.838302 -2.501697 -0.393765 23.676891 1.132517 -10.183039 1.143763 -2.433374 9.060729 4.762591 4.071714 0.000000 0.000000 0.000000 0.000000 0.000000 0.000000 -4.638885 6.444226 -19.143589 12.232449 -5.681905 1.097608 2.464120 -7.867946 6.058089 0.000000 0.000000 0.000000 0.248047 9.255580 -15.725534 4.461771 -10.359093 -3.804035 -0.148975 3.005240 -2.015641 0.000000 0.000000 0.000000
-21.956523 73.273809 364.827513 -0.174268 -1.740775 14.338145 -0.699215 -0.382772 -14.361798 -0.050811 -0.030685 -0.033121 -18.380221 -6.122122 -4.841700 0.000000 0.000000 0.000000 -1.330814 4.681247 0.042893 9.203487 -2.740890 -2.086916 12.000499 -15.632151 -6.869754 -15.043041 7.510304 12.079672 0.000000 0.000000 0.000000 0.000000 0.000000 0.000000 -3.744383 -12.034743 -3.212766 0.183352 28.988141 1.592372 -11.707054 12.759335 -3.881513 11.711320 -5.174963 8.086768 0.000000 0.000000 0.000000 0.000000 0.000000 0.000000 -6.010971 6.277505 -14.509572 14.215098 -5.129647 1.465575 3.510029 -7.119768 4.582398 0.000000 0.000000 0.000000 -1.082637 12.886538 -9.410308 6.473291 -13.155175 -4.683450 0.422812 4.614840 -4.210149 0.000000 0.000000 0.000000
-21.799674 72.353221 364.521949 -0.670170 -2.745157 9.675444 -0.516922 -0.674030 -9.727201 -0.259824 -0.336909 -0.057588 -25.457396 -6.872730 -6.386125 0.000000 0.000000 0.000000 -1.897466 7.944099 0.174443 14.144813 -5.103333 -2.802649 15.522077 -22.521852 -7.890303 -17.819866 9.931965 16.524822 0.000000 0.000000 0.000000 0.000000 0.000000 0.000000 -3.154105 -13.483171 -3.982041 -2.523094 34.703427 3.379438 -16.439547 16.826786 -4.929826 18.441603 -8.770053 11.926991 0.000000 0.000000 0.000000 0.000000 0.000000 0.000000 -6.935170 6.253937 -10.022090 16.216689 -5.086165 1.745396 2.174866 -4.631185 2.649966 0.000000 0.000000 0.000000 -1.588683 16.564480 -3.357754 7.727767 -15.183888 -5.143034 0.493253 6.001677 -6.434479 0.000000 0.000000 0.000000
-21.658030 71.099781 364.097268 -2.017485 -5.019492 5.018307 0.010665 -0.346349 -5.183694 -0.490163 -0.698015 -0.108316 -31.534073 -7.430157 -7.758426 0.000000 0.000000 0.000000 -3.381778 11.546729 0.615684 23.144575 -7.027555 -3.859625 11.340871 -25.257857 -5.804260 -10.501387 10.569750 14.754507 0.000000 0.000000 0.000000 0.000000 0.000000 0.000000 -1.409524 -13.947868 -4.681982 -6.062956 38.877371 5.820890 -21.432811 13.234118 -5.766240 24.437408 -6.278484 12.935896 0.000000 0.000000 0.000000 0.000000 0.000000 0.000000 -7.343252 6.839649 -5.630859 19.021989 -4.413124 2.130981 0.332873 -3.502548 2.245003 0.000000 0.000000 0.000000 -1.160429 21.093813 2.477013 8.588869 -16.051756 -5.159611 0.954546 6.576690 -9.368939 0.000000 0.000000 0.000000
-21.451419 69.747856 363.327224 -4.027610 -7.801144 1.584874 0.134284 -0.308612 -2.013585 -0.358837 -0.390615 -0.174467 -34.313338 -7.665232 -8.480741 0.000000 0.000000 0.000000 -5.429872 14.898624 1.481283 34.212540 -9.015627 -4.771830 3.746466 -28.268548 -2.589830 3.289848 13.805587 8.409795 0.000000 0.000000 0.000000 0.000000 0.000000 0.000000 -2.590122 -15.472780 -5.491487 -6.224206 43.942357 8.012737 -18.309378 13.093394 -5.881061 20.229498 -7.833635 12.135351 0.000000 0.000000 0.000000 0.000000 0.000000 0.000000 -6.534907 7.827653 -2.555254 20.589589 -3.787240 2.224033 2.599112 -0.373855 -2.048065 0.000000 0.000000 0.000000 0.487434 25.471512 6.346993 8.726421 -15.519537 -4.831959 1.766249 5.937928 -12.257689 0.000000 0.000000 0.000000
-21.248969 68.562101 362.218062 -6.572342 -10.649599 -0.278925 0.164943 -0.246523 -0.581837 -0.195317 -0.395718 -0.281521 -33.723747 -7.026884 -8.213514 0.000000 0.000000 0.000000 -4.925060 17.656248 2.181102 40.899996 -11.148132 -5.380151 -1.058688 -30.245799 -0.550372 6.586185 15.875082 6.499817 0.000000 0.000000 0.000000 0.000000 0.000000 0.000000 -3.285404 -16.091589 -6.124695 -6.876210 48.778714 10.556837 -13.374155 6.711381 -5.696903 13.399857 -7.849247 8.875634 0.000000 0.000000 0.000000 0.000000 0.000000 0.000000 -4.218900 9.021382 -1.306424 20.446214 -2.990798 2.055750 0.775051 2.478784 -3.086083 0.000000 0.000000 0.000000 3.901391 29.068847 7.405646 8.015732 -13.659156 -4.292450 2.900650 4.580198 -14.882954 0.000000 0.000000 0.000000
